<svg width="1000" height="475" viewBox="0 0 1000 475" fill="none" xmlns="http://www.w3.org/2000/svg">
<rect width="1000" height="475" fill="white"/>
<path d="M481.858 234.131L481.453 230.743C486.882 228.579 487.834 225.595 488.239 219.628C488.644 215.158 488.644 209.19 488.644 204.446V168.411C488.644 163.668 488.644 157.7 488.239 153.23C487.834 147.262 486.882 144.29 481.453 142.115L481.858 138.726C487.155 139.131 490.811 139.131 494.204 139.131H519.169C524.729 139.131 528.943 139.131 534.229 138.726C535.181 145.634 535.718 150.651 536.133 158.105L532.193 158.782C530.431 153.766 528.932 150.924 526.896 148.749C524.86 146.574 521.741 145.492 519.158 145.087C515.765 144.541 512.777 144.41 507.491 144.41C501.11 144.41 500.3 145.492 499.895 150.913C499.49 155.11 499.49 159.996 499.49 164.87V182.216C504.109 182.216 513.609 181.942 517.943 181.538C524.05 180.86 525.955 178.696 527.99 172.455L531.252 173.133C530.847 178.423 530.847 181.396 530.847 184.784C530.847 188.172 530.847 191.287 531.252 196.577L527.99 197.255C525.955 191.025 524.05 188.992 517.943 188.172C513.598 187.626 503.967 187.495 499.49 187.495V205.791C499.49 210.534 499.764 217.857 499.895 220.568C500.169 227.213 502.478 228.426 508.585 228.426C514.693 228.426 519.311 228.295 522.967 227.749C527.717 227.071 529.884 225.169 531.92 222.327C533.55 219.748 534.908 216.906 536.67 211.89L540.336 212.567C539.658 220.699 538.574 227.344 537.075 234.383C527.17 233.836 514.824 233.705 497.444 233.705C490.789 233.705 487.133 233.705 481.836 234.11L481.858 234.131Z" fill="#1A0C6D"/>
<path d="M556.593 191.714C558.497 186.566 558.902 183.987 558.902 182.631C558.902 181.823 558.497 181.407 557.819 181.407C556.462 181.407 553.747 183.571 547.509 190.894L544.926 188.588C552.664 177.341 558.224 172.194 562.7 172.194C565.546 172.194 568.129 174.773 568.129 178.839C568.129 183.178 565.962 189.135 563.926 194.698L555.104 219.628C553.616 223.694 553.342 224.776 553.342 225.323C553.342 226 553.89 226.678 554.699 226.678C556.188 226.678 558.902 225.192 565.557 215.705L568.271 217.606C561.08 231.564 554.831 235.356 550.081 235.356C546.962 235.356 544.247 232.646 544.247 229.126C544.247 226.011 545.199 223.027 548.45 214.218L556.593 191.725V191.714ZM567.045 134.934C571.117 134.934 574.236 138.049 574.236 142.115C574.236 146.181 571.117 149.296 567.045 149.296C562.974 149.296 559.855 146.181 559.855 142.115C559.855 138.049 562.974 134.934 567.045 134.934Z" fill="#1A0C6D"/>
<path d="M618.515 148.134C621.777 151.796 622.991 156.397 622.991 161.414C622.991 174.693 613.218 184.18 601.277 184.18C595.17 184.18 590.693 182.421 586.753 179.163C582.55 182.421 581.598 185.535 581.598 188.65C581.598 192.585 584.717 195.154 590.825 195.427L607.242 195.973C620.408 196.378 626.778 204.236 626.778 214.401C626.778 226.598 614.695 237.298 595.837 237.298C580.504 237.298 572.766 230.522 572.766 221.308C572.766 214.936 575.885 209.92 583.623 204.641C577.789 202.608 573.849 198.137 573.849 191.765C573.849 186.475 576.29 181.054 583.218 175.775C580.099 171.578 578.599 167.239 578.599 161.414C578.599 148.67 588.778 138.647 600.719 138.647C608.588 138.647 610.624 141.358 618.362 141.358C621.755 141.358 626.505 141.227 631.255 140.811L632.338 143.117L631.255 148.134H618.493H618.515ZM604.812 206.269C598.705 206.269 593.823 206.269 588.253 205.865C583.502 210.335 581.598 214.805 581.598 219.013C581.598 224.839 586.622 229.724 598.015 229.724C613.623 229.724 619.325 223.079 619.325 216.718C619.325 210.357 614.98 206.28 604.801 206.28L604.812 206.269ZM589.073 160.594C589.073 172.518 593.692 178.759 601.288 178.759C608.347 178.759 612.692 174.016 612.692 162.091C612.692 150.845 607.942 144.068 600.478 144.068C593.823 144.068 589.073 149.216 589.073 160.605V160.594Z" fill="#1A0C6D"/>
<path d="M658.53 173.393C671.554 173.393 681.47 183.011 681.47 196.029C681.47 197.111 681.47 198.062 681.196 199.144H639.398C639.124 200.772 639.124 202.259 639.124 204.291C639.124 218.249 647.541 227.736 658.398 227.736C667.088 227.736 672.375 224.752 677.935 216.762L681.196 218.795C677.125 228.96 669.113 237.365 657.041 237.365C640.077 237.365 628.814 223.003 628.814 206.466C628.814 187.624 641.707 173.404 658.53 173.404V173.393ZM669.518 193.722C669.387 184.509 663.137 179.492 655.542 179.492C647.267 179.492 641.97 185.722 640.339 193.722H669.518Z" fill="#1A0C6D"/>
<path d="M737.785 173.245C737.785 177.442 737.785 182.185 738.059 186.393C738.464 191.945 739.285 194.12 744.297 196.153L743.892 199.268C739.142 198.864 736.155 198.864 733.035 198.864C729.916 198.864 726.928 198.864 722.178 199.268L721.773 196.153C726.797 194.12 727.475 191.956 727.88 186.393C728.285 182.196 728.285 177.452 728.285 173.245V158.883C728.285 151.298 723.666 146.139 716.476 146.139C707.107 146.139 701.273 152.511 701.273 161.178V173.245C701.273 177.442 701.273 182.185 701.547 186.393C701.952 191.945 702.773 194.12 707.786 196.153L707.381 199.268C702.631 198.864 699.643 198.864 696.523 198.864C693.404 198.864 690.416 198.864 685.666 199.268L685.261 196.153C690.285 194.12 690.963 191.956 691.368 186.393C691.773 182.196 691.773 177.452 691.773 173.245V169.856C691.773 165.659 691.773 161.32 691.368 157.112C690.963 151.56 689.606 150.336 684.714 149.385V146.543C690.952 143.56 694.345 141.395 699.095 137.056L701.941 138.138C701.536 142.478 701.262 146.139 701.131 149.527L701.262 149.658C704.929 142.751 711.31 137.33 719.453 137.33C726.107 137.33 731.667 140.445 734.929 145.735C736.691 148.85 737.774 152.238 737.774 157.659V173.245H737.785Z" fill="#1A0C6D"/>
<path d="M499.49 309.703C499.49 314.446 499.622 321.769 499.895 324.48C500.574 331.125 502.478 332.338 508.585 332.338C514.693 332.338 518.49 332.338 522.431 331.661C527.312 330.71 529.895 328.546 531.931 325.431C533.693 322.851 535.192 319.736 536.954 314.457L540.894 315.135C540.216 323.813 538.99 330.721 537.502 338.306C526.776 337.759 514.835 337.628 497.465 337.628C490.811 337.628 487.155 337.628 481.858 338.033L481.453 334.645C486.882 332.48 487.834 329.497 488.239 323.529C488.644 319.059 488.644 313.091 488.644 308.348V272.302C488.644 267.558 488.644 261.591 488.239 257.12C487.834 251.153 486.882 248.18 481.453 246.005L481.858 242.617C487.155 243.021 490.811 243.021 493.941 243.021C497.334 243.021 501.001 243.021 506.287 242.617L506.692 246.005C501.263 248.169 500.311 251.153 499.906 257.12C499.501 261.591 499.501 267.558 499.501 272.302V309.703H499.49Z" fill="#1A0C6D"/>
<path d="M547.588 286.116C550.171 281.373 556.957 276.356 564.958 276.356C571.612 276.356 576.767 278.662 580.018 283.406C582.185 286.521 584.089 291.942 584.089 298.04V311.047C584.089 315.244 584.089 319.178 584.363 323.375C584.637 327.846 586.804 331.234 591.149 333.267L589.387 338.688C580.018 338.283 576.494 334.218 575.268 328.119H574.994C571.328 336.382 565.363 339.77 559.256 339.77C550.565 339.77 545.137 334.076 545.137 326.895C545.137 320.523 548.398 316.73 553.685 313.342C558.708 310.085 567.661 306.839 574.578 305.079V298.434C574.578 294.237 573.495 290.98 571.733 288.674C569.697 285.963 566.173 284.881 563.185 284.881C558.566 284.881 554.768 286.783 550.16 290.433L547.577 286.094L547.588 286.116ZM574.589 309.834C571.744 310.784 569.292 311.866 566.72 312.949C557.493 316.883 554.779 320.949 554.779 324.6C554.779 328.25 556.815 331.507 561.565 331.507C567.125 331.507 574.589 326.632 574.589 317.277V309.823V309.834Z" fill="#1A0C6D"/>
<path d="M629.603 289.211L638.556 268.204C642.222 259.668 642.759 256.553 642.759 253.974C642.759 251.132 642.08 248.957 638.009 246.793L638.556 243.678C642.496 244.083 644.794 244.083 647.782 244.083C650.77 244.083 652.664 244.083 656.604 243.678L657.009 246.793C654.568 248.957 653.069 251.406 650.497 256.553C648.461 260.619 646.83 264.685 645.199 268.347L621.175 322.558C618.592 328.383 616.02 332.591 613.306 335.433C610.997 337.739 607.33 339.772 602.996 339.772C599.33 339.772 596.615 337.335 596.615 334.078C596.615 331.094 598.651 328.525 601.77 328.525C604.353 328.525 605.294 329.203 607.746 329.203C610.592 329.203 612.627 327.039 614.663 322.7L624.437 301.562L610.997 268.357C609.508 264.565 607.735 259.548 605.568 254.673C603.532 250.203 602.58 248.979 599.33 246.815L599.877 243.7C603.817 243.973 607.888 244.105 610.865 244.105C613.842 244.105 616.294 243.973 620.234 243.7L620.639 246.815C617.651 248.17 616.568 250.072 616.568 252.236C616.568 255.351 617.115 257.931 621.186 268.095L629.603 289.233V289.211Z" fill="#1A0C6D"/>
<path d="M670.389 276.094C683.414 276.094 693.319 285.712 693.319 298.73C693.319 299.812 693.319 300.763 693.045 301.845H651.247C650.973 303.473 650.973 304.96 650.973 306.993C650.973 320.95 659.39 330.437 670.247 330.437C678.937 330.437 684.223 327.453 689.783 319.463L693.045 321.496C688.974 331.661 680.962 340.066 668.89 340.066C651.925 340.066 640.663 325.704 640.663 309.168C640.663 290.325 653.556 276.105 670.378 276.105L670.389 276.094ZM681.378 296.424C681.246 287.21 674.997 282.193 667.401 282.193C659.127 282.193 653.83 288.423 652.199 296.424H681.378Z" fill="#1A0C6D"/>
<path d="M731.249 285.39C724.868 285.39 719.582 292.845 719.582 305.851V312.223C719.582 316.42 719.582 321.163 719.856 325.371C720.261 330.923 721.486 333.372 727.451 335.131L727.046 338.246C722.296 337.842 717.951 337.842 714.832 337.842C711.713 337.842 708.725 337.842 703.975 338.246L703.57 335.131C708.593 333.098 709.272 330.934 709.677 325.371C710.082 321.174 710.082 316.431 710.082 312.223V308.835C710.082 304.638 710.082 300.299 709.677 296.091C709.272 290.538 707.915 289.314 703.022 288.363V285.522C709.261 282.538 712.654 280.374 717.404 276.035L720.25 277.117C719.845 281.456 719.571 286.877 719.44 290.265L719.571 290.396C723.238 281.456 729.476 276.297 735.857 276.297C741.417 276.297 744.547 279.412 744.547 283.073C744.547 286.735 742.511 287.817 739.666 287.817C736.141 287.817 734.511 285.38 731.249 285.38V285.39Z" fill="#1A0C6D"/>
<rect x="356.453" y="137.934" width="25" height="25" transform="rotate(90 356.453 137.934)" fill="#1A0C6D"/>
<rect x="305.453" y="137.934" width="100" height="50" transform="rotate(90 305.453 137.934)" fill="#1A0C6D"/>
<rect x="305.453" y="237.934" width="100" height="50" transform="rotate(90 305.453 237.934)" fill="#1A0C6D"/>
<rect x="405.453" y="187.934" width="50" height="25" transform="rotate(90 405.453 187.934)" fill="#1A0C6D"/>
<rect x="380.453" y="287.934" width="50" height="25" transform="rotate(90 380.453 287.934)" fill="#1A0C6D"/>
<rect x="405.453" y="287.934" width="50" height="25" transform="rotate(90 405.453 287.934)" fill="#1A0C6D"/>
<rect x="330.453" y="287.934" width="50" height="25" transform="rotate(90 330.453 287.934)" fill="#1A0C6D"/>
<rect x="430.453" y="137.934" width="50" height="25" transform="rotate(90 430.453 137.934)" fill="#1A0C6D"/>
<rect x="380.453" y="137.934" width="100" height="25" transform="rotate(90 380.453 137.934)" fill="#1A0C6D"/>
<rect x="355.453" y="237.934" width="100" height="25" transform="rotate(90 355.453 237.934)" fill="#1A0C6D"/>
</svg>
