<svg width="1000" height="475" viewBox="0 0 1000 475" fill="none" xmlns="http://www.w3.org/2000/svg">
<rect width="1000" height="475" fill="white"/>
<rect x="305.955" y="137.887" width="100" height="50" transform="rotate(90 305.955 137.887)" fill="#1A0C6D"/>
<rect x="305.955" y="237.887" width="100" height="50" transform="rotate(90 305.955 237.887)" fill="#1A0C6D"/>
<rect x="405.955" y="187.887" width="50" height="25" transform="rotate(90 405.955 187.887)" fill="#1A0C6D"/>
<rect x="330.955" y="287.887" width="50" height="25" transform="rotate(90 330.955 287.887)" fill="#1A0C6D"/>
<rect x="380.955" y="287.887" width="50" height="25" transform="rotate(90 380.955 287.887)" fill="#1A0C6D"/>
<rect x="405.955" y="287.887" width="50" height="25" transform="rotate(90 405.955 287.887)" fill="#1A0C6D"/>
<rect x="430.955" y="212.887" width="50" height="25" transform="rotate(90 430.955 212.887)" fill="#1A0C6D"/>
<rect x="356.955" y="137.887" width="25" height="25" transform="rotate(90 356.955 137.887)" fill="#1A0C6D"/>
<rect x="380.955" y="137.887" width="100" height="25" transform="rotate(90 380.955 137.887)" fill="#1A0C6D"/>
<rect x="355.955" y="237.887" width="100" height="25" transform="rotate(90 355.955 237.887)" fill="#1A0C6D"/>
<path d="M481.36 234.13L480.955 230.74C486.384 228.575 487.336 225.59 487.741 219.619C488.146 215.147 488.146 209.177 488.146 204.431V168.379C488.146 163.634 488.146 157.663 487.741 153.191C487.336 147.221 486.384 144.246 480.955 142.07L481.36 138.681C486.657 139.085 490.313 139.085 493.706 139.085H518.671C524.23 139.085 528.444 139.085 533.73 138.681C534.683 145.591 535.219 150.61 535.635 158.068L531.695 158.746C529.933 153.727 528.433 150.884 526.397 148.708C524.362 146.532 521.243 145.449 518.66 145.045C515.267 144.498 512.279 144.367 506.993 144.367C500.612 144.367 499.802 145.449 499.397 150.873C498.992 155.072 498.992 159.96 498.992 164.836V182.19C503.611 182.19 513.111 181.916 517.445 181.512C523.552 180.834 525.456 178.669 527.492 172.425L530.753 173.103C530.348 178.395 530.348 181.37 530.348 184.759C530.348 188.149 530.348 191.266 530.753 196.558L527.492 197.236C525.456 191.003 523.552 188.969 517.445 188.149C513.1 187.602 503.468 187.471 498.992 187.471V205.776C498.992 210.522 499.266 217.848 499.397 220.56C499.671 227.208 501.98 228.422 508.087 228.422C514.194 228.422 518.813 228.29 522.468 227.744C527.218 227.066 529.385 225.163 531.421 222.32C533.052 219.74 534.409 216.897 536.171 211.877L539.838 212.555C539.159 220.691 538.075 227.339 536.576 234.381C526.671 233.834 514.325 233.703 496.945 233.703C490.291 233.703 486.635 233.703 481.338 234.108L481.36 234.13Z" fill="#1A0C6D"/>
<path d="M555.723 191.693C557.627 186.542 558.032 183.962 558.032 182.606C558.032 181.797 557.627 181.381 556.948 181.381C555.591 181.381 552.877 183.546 546.638 190.872L544.056 188.565C551.793 177.313 557.353 172.163 561.83 172.163C564.675 172.163 567.258 174.744 567.258 178.811C567.258 183.153 565.091 189.112 563.056 194.678L554.234 219.62C552.746 223.687 552.472 224.77 552.472 225.317C552.472 225.995 553.019 226.673 553.829 226.673C555.318 226.673 558.032 225.186 564.686 215.694L567.401 217.597C560.21 231.56 553.96 235.355 549.21 235.355C546.091 235.355 543.377 232.643 543.377 229.122C543.377 226.006 544.329 223.02 547.58 214.207L555.723 191.704V191.693ZM566.175 134.887C570.246 134.887 573.365 138.003 573.365 142.071C573.365 146.139 570.246 149.255 566.175 149.255C562.103 149.255 558.984 146.139 558.984 142.071C558.984 138.003 562.103 134.887 566.175 134.887V134.887Z" fill="#1A0C6D"/>
<path d="M618.016 148.092C621.278 151.755 622.493 156.359 622.493 161.378C622.493 174.663 612.719 184.155 600.779 184.155C594.671 184.155 590.195 182.394 586.255 179.136C582.052 182.394 581.1 185.511 581.1 188.627C581.1 192.563 584.219 195.133 590.326 195.406L606.743 195.953C619.91 196.358 626.28 204.22 626.28 214.389C626.28 226.592 614.197 237.297 595.339 237.297C580.005 237.297 572.268 230.518 572.268 221.3C572.268 214.925 575.387 209.906 583.125 204.624C577.291 202.591 573.351 198.118 573.351 191.743C573.351 186.451 575.792 181.027 582.72 175.746C579.601 171.547 578.101 167.206 578.101 161.378C578.101 148.628 588.28 138.601 600.22 138.601C608.09 138.601 610.125 141.313 617.863 141.313C621.256 141.313 626.006 141.181 630.756 140.766L631.84 143.073L630.756 148.092H617.995H618.016ZM604.314 206.254C598.207 206.254 593.325 206.254 587.754 205.849C583.004 210.321 581.1 214.794 581.1 219.003C581.1 224.832 586.124 229.719 597.517 229.719C613.124 229.719 618.826 223.071 618.826 216.707C618.826 210.343 614.481 206.265 604.303 206.265L604.314 206.254ZM588.575 160.558C588.575 172.487 593.194 178.731 600.789 178.731C607.849 178.731 612.194 173.985 612.194 162.056C612.194 150.804 607.444 144.024 599.98 144.024C593.325 144.024 588.575 149.175 588.575 160.568V160.558Z" fill="#1A0C6D"/>
<path d="M658.03 173.363C671.054 173.363 680.97 182.986 680.97 196.009C680.97 197.092 680.97 198.043 680.697 199.126H638.899C638.625 200.755 638.625 202.242 638.625 204.276C638.625 218.239 647.042 227.731 657.899 227.731C666.589 227.731 671.875 224.746 677.435 216.752L680.697 218.786C676.625 228.955 668.614 237.364 656.542 237.364C639.578 237.364 628.315 222.996 628.315 206.452C628.315 187.6 641.208 173.374 658.03 173.374V173.363ZM669.019 193.702C668.887 184.484 662.638 179.465 655.042 179.465C646.768 179.465 641.471 185.698 639.84 193.702H669.019V193.702Z" fill="#1A0C6D"/>
<path d="M737.283 235.041C737.283 239.24 737.283 243.985 737.556 248.195C737.961 253.75 738.782 255.926 743.795 257.96L743.39 261.076C738.64 260.672 735.652 260.672 732.533 260.672C729.413 260.672 726.426 260.672 721.676 261.076L721.271 257.96C726.294 255.926 726.973 253.761 727.378 248.195C727.783 243.996 727.783 239.251 727.783 235.041V220.673C727.783 213.084 723.164 207.923 715.973 207.923C706.605 207.923 700.771 214.298 700.771 222.969V235.041C700.771 239.24 700.771 243.985 701.045 248.195C701.45 253.75 702.271 255.926 707.283 257.96L706.878 261.076C702.128 260.672 699.14 260.672 696.021 260.672C692.902 260.672 689.914 260.672 685.164 261.076L684.759 257.96C689.783 255.926 690.461 253.761 690.866 248.195C691.271 243.996 691.271 239.251 691.271 235.041V231.651C691.271 227.452 691.271 223.111 690.866 218.901C690.461 213.346 689.104 212.122 684.212 211.17V208.327C690.45 205.342 693.843 203.177 698.593 198.836L701.439 199.919C701.034 204.26 700.76 207.923 700.629 211.313L700.76 211.444C704.427 204.533 710.808 199.109 718.95 199.109C725.605 199.109 731.165 202.226 734.426 207.518C736.188 210.635 737.272 214.024 737.272 219.448V235.041H737.283Z" fill="#1A0C6D"/>
<path d="M498.992 309.736C498.992 314.482 499.123 321.808 499.397 324.52C500.075 331.168 501.98 332.382 508.087 332.382C514.194 332.382 517.992 332.382 521.932 331.704C526.813 330.753 529.396 328.588 531.432 325.471C533.194 322.891 534.694 319.774 536.456 314.493L540.396 315.171C539.717 323.853 538.491 330.764 537.003 338.352C526.277 337.806 514.336 337.675 496.967 337.675C490.313 337.675 486.657 337.675 481.36 338.079L480.955 334.689C486.384 332.524 487.336 329.539 487.741 323.569C488.146 319.096 488.146 313.126 488.146 308.38V272.318C488.146 267.572 488.146 261.602 487.741 257.13C487.336 251.159 486.384 248.185 480.955 246.009L481.36 242.619C486.657 243.024 490.313 243.024 493.443 243.024C496.836 243.024 500.502 243.024 505.789 242.619L506.194 246.009C500.765 248.174 499.813 251.159 499.408 257.13C499.003 261.602 499.003 267.572 499.003 272.318V309.736H498.992Z" fill="#1A0C6D"/>
<path d="M547.091 286.14C549.674 281.394 556.46 276.375 564.46 276.375C571.115 276.375 576.27 278.682 579.52 283.428C581.687 286.544 583.592 291.968 583.592 298.07V311.082C583.592 315.281 583.592 319.217 583.865 323.416C584.139 327.888 586.306 331.278 590.651 333.312L588.889 338.736C579.52 338.331 575.996 334.263 574.77 328.162H574.497C570.83 336.428 564.865 339.818 558.758 339.818C550.068 339.818 544.64 334.121 544.64 326.937C544.64 320.562 547.901 316.768 553.187 313.378C558.211 310.12 567.164 306.872 574.081 305.111V298.463C574.081 294.264 572.997 291.006 571.235 288.699C569.2 285.987 565.675 284.904 562.687 284.904C558.069 284.904 554.271 286.807 549.663 290.459L547.08 286.118L547.091 286.14ZM574.092 309.868C571.246 310.819 568.795 311.902 566.223 312.984C556.996 316.921 554.282 320.989 554.282 324.641C554.282 328.293 556.318 331.552 561.068 331.552C566.628 331.552 574.092 326.675 574.092 317.315V309.857V309.868Z" fill="#1A0C6D"/>
<path d="M629.104 289.236L638.057 268.219C641.724 259.679 642.26 256.563 642.26 253.982C642.26 251.139 641.581 248.963 637.51 246.798L638.057 243.682C641.997 244.086 644.296 244.086 647.284 244.086C650.272 244.086 652.165 244.086 656.105 243.682L656.51 246.798C654.069 248.963 652.57 251.413 649.998 256.563C647.962 260.631 646.331 264.698 644.701 268.361L620.677 322.597C618.094 328.426 615.522 332.635 612.808 335.478C610.499 337.786 606.832 339.82 602.498 339.82C598.831 339.82 596.117 337.381 596.117 334.123C596.117 331.137 598.153 328.568 601.272 328.568C603.855 328.568 604.796 329.246 607.248 329.246C610.094 329.246 612.129 327.081 614.165 322.74L623.939 301.592L610.499 268.372C609.01 264.578 607.237 259.559 605.07 254.682C603.034 250.21 602.082 248.985 598.831 246.82L599.379 243.704C603.319 243.977 607.39 244.108 610.367 244.108C613.344 244.108 615.796 243.977 619.736 243.704L620.141 246.82C617.153 248.176 616.069 250.079 616.069 252.244C616.069 255.36 616.617 257.941 620.688 268.11L629.104 289.258V289.236Z" fill="#1A0C6D"/>
<path d="M669.891 276.112C682.915 276.112 692.82 285.735 692.82 298.758C692.82 299.841 692.82 300.792 692.546 301.875H650.749C650.475 303.504 650.475 304.991 650.475 307.025C650.475 320.988 658.891 330.48 669.749 330.48C678.439 330.48 683.725 327.495 689.285 319.501L692.546 321.535C688.475 331.704 680.463 340.113 668.391 340.113C651.427 340.113 640.165 325.745 640.165 309.201C640.165 290.349 653.058 276.123 669.88 276.123L669.891 276.112ZM680.879 296.451C680.748 287.233 674.499 282.214 666.903 282.214C658.629 282.214 653.332 288.447 651.701 296.451H680.879Z" fill="#1A0C6D"/>
<path d="M730.748 285.413C724.367 285.413 719.081 292.87 719.081 305.883V312.258C719.081 316.457 719.081 321.202 719.354 325.412C719.759 330.967 720.985 333.416 726.95 335.177L726.545 338.293C721.795 337.889 717.45 337.889 714.331 337.889C711.212 337.889 708.224 337.889 703.474 338.293L703.069 335.177C708.092 333.143 708.771 330.978 709.176 325.412C709.581 321.213 709.581 316.467 709.581 312.258V308.868C709.581 304.669 709.581 300.328 709.176 296.118C708.771 290.563 707.414 289.339 702.521 288.387V285.544C708.76 282.559 712.153 280.394 716.903 276.053L719.748 277.135C719.343 281.476 719.07 286.9 718.939 290.29L719.07 290.421C722.736 281.476 728.975 276.315 735.356 276.315C740.915 276.315 744.046 279.432 744.046 283.095C744.046 286.758 742.01 287.84 739.164 287.84C735.64 287.84 734.009 285.402 730.748 285.402V285.413Z" fill="#1A0C6D"/>
</svg>
