<svg width="1000" height="475" viewBox="0 0 1000 475" fill="none" xmlns="http://www.w3.org/2000/svg">
<rect width="1000" height="475" fill="white"/>
<g clip-path="url(#clip0_286_16041)">
<path d="M469.908 217.239L469.505 213.866C474.906 211.712 475.853 208.742 476.256 202.802C476.659 198.353 476.659 192.413 476.659 187.691V151.823C476.659 147.101 476.659 141.161 476.256 136.712C475.853 130.772 474.906 127.813 469.505 125.648L469.908 122.275C475.178 122.678 478.815 122.678 482.191 122.678H507.028C512.56 122.678 516.752 122.678 522.012 122.275C522.959 129.151 523.493 134.144 523.906 141.564L519.986 142.238C518.233 137.245 516.741 134.416 514.716 132.251C512.691 130.087 509.587 129.01 507.018 128.607C503.642 128.063 500.669 127.933 495.41 127.933C489.062 127.933 488.256 129.01 487.853 134.406C487.45 138.583 487.45 143.446 487.45 148.298V165.563C492.045 165.563 501.497 165.291 505.809 164.889C511.885 164.214 513.78 162.06 515.805 155.848L519.05 156.523C518.647 161.788 518.647 164.747 518.647 168.12C518.647 171.492 518.647 174.593 519.05 179.858L515.805 180.533C513.78 174.332 511.885 172.308 505.809 171.492C501.486 170.948 491.904 170.818 487.45 170.818V189.029C487.45 193.751 487.722 201.04 487.853 203.738C488.125 210.352 490.423 211.56 496.499 211.56C502.575 211.56 507.17 211.429 510.807 210.885C515.533 210.211 517.689 208.318 519.714 205.489C521.337 202.922 522.687 200.093 524.44 195.1L528.088 195.774C527.413 203.868 526.335 210.483 524.843 217.489C514.988 216.945 502.705 216.814 485.414 216.814C478.793 216.814 475.156 216.814 469.886 217.217L469.908 217.239Z" fill="#1A0C6D"/>
<path d="M545.379 175.017C547.274 169.893 547.677 167.325 547.677 165.976C547.677 165.171 547.274 164.758 546.599 164.758C545.249 164.758 542.548 166.912 536.342 174.201L533.772 171.905C541.47 160.711 547.002 155.587 551.456 155.587C554.287 155.587 556.857 158.154 556.857 162.201C556.857 166.52 554.7 172.449 552.675 177.987L543.899 202.802C542.418 206.849 542.145 207.926 542.145 208.47C542.145 209.144 542.69 209.819 543.496 209.819C544.977 209.819 547.677 208.339 554.298 198.896L556.998 200.789C549.844 214.682 543.626 218.457 538.901 218.457C535.797 218.457 533.097 215.759 533.097 212.256C533.097 209.155 534.044 206.185 537.278 197.417L545.379 175.028V175.017ZM555.778 118.5C559.829 118.5 562.933 121.601 562.933 125.648C562.933 129.695 559.829 132.795 555.778 132.795C551.728 132.795 548.624 129.695 548.624 125.648C548.624 121.601 551.728 118.5 555.778 118.5V118.5Z" fill="#1A0C6D"/>
<path d="M605.868 165.443C609.113 169.088 610.322 173.668 610.322 178.661C610.322 191.879 600.598 201.322 588.718 201.322C582.642 201.322 578.188 199.571 574.268 196.329C570.087 199.571 569.139 202.671 569.139 205.772C569.139 209.688 572.243 212.245 578.319 212.517L594.652 213.061C607.752 213.463 614.089 221.285 614.089 231.403C614.089 243.544 602.068 254.194 583.306 254.194C568.051 254.194 560.352 247.449 560.352 238.278C560.352 231.936 563.455 226.942 571.154 221.688C565.35 219.664 561.43 215.215 561.43 208.872C561.43 203.607 563.858 198.211 570.751 192.956C567.648 188.779 566.156 184.46 566.156 178.661C566.156 165.976 576.283 156 588.163 156C595.992 156 598.017 158.698 605.716 158.698C609.091 158.698 613.817 158.568 618.543 158.154L619.621 160.45L618.543 165.443H605.846H605.868ZM592.235 223.309C586.159 223.309 581.303 223.309 575.76 222.906C571.034 227.356 569.139 231.805 569.139 235.994C569.139 241.792 574.138 246.655 585.473 246.655C601.001 246.655 606.674 240.041 606.674 233.709C606.674 227.378 602.351 223.32 592.224 223.32L592.235 223.309ZM576.577 177.845C576.577 189.714 581.172 195.926 588.729 195.926C595.752 195.926 600.075 191.205 600.075 179.336C600.075 168.141 595.349 161.396 587.923 161.396C581.303 161.396 576.577 166.52 576.577 177.856V177.845Z" fill="#1A0C6D"/>
<path d="M645.678 191.205C658.636 191.205 668.502 200.779 668.502 213.736C668.502 214.813 668.502 215.759 668.23 216.836H626.644C626.372 218.457 626.372 219.937 626.372 221.96C626.372 235.853 634.746 245.296 645.548 245.296C654.194 245.296 659.453 242.326 664.985 234.373L668.23 236.397C664.179 246.514 656.208 254.88 644.198 254.88C627.32 254.88 616.115 240.585 616.115 224.125C616.115 205.37 628.942 191.216 645.678 191.216V191.205ZM656.611 211.44C656.48 202.269 650.263 197.276 642.706 197.276C634.474 197.276 629.203 203.477 627.581 211.44H656.611V211.44Z" fill="#1A0C6D"/>
<path d="M724.776 226.953C724.776 231.131 724.776 235.852 725.048 240.041C725.451 245.567 726.268 247.732 731.255 249.756L730.852 252.856C726.126 252.454 723.153 252.454 720.05 252.454C716.947 252.454 713.974 252.454 709.248 252.856L708.845 249.756C713.843 247.732 714.518 245.578 714.921 240.041C715.324 235.863 715.324 231.142 715.324 226.953V212.658C715.324 205.108 710.729 199.973 703.575 199.973C694.254 199.973 688.45 206.316 688.45 214.943V226.953C688.45 231.131 688.45 235.852 688.722 240.041C689.125 245.567 689.942 247.732 694.929 249.756L694.526 252.856C689.8 252.454 686.828 252.454 683.724 252.454C680.621 252.454 677.648 252.454 672.922 252.856L672.52 249.756C677.518 247.732 678.193 245.578 678.596 240.041C678.999 235.863 678.999 231.142 678.999 226.953V223.581C678.999 219.403 678.999 215.084 678.596 210.896C678.193 205.369 676.842 204.151 671.975 203.204V200.376C678.182 197.406 681.557 195.252 686.283 190.933L689.114 192.01C688.711 196.329 688.439 199.973 688.309 203.346L688.439 203.476C692.087 196.601 698.435 191.205 706.537 191.205C713.157 191.205 718.689 194.305 721.934 199.571C723.687 202.671 724.765 206.044 724.765 211.44V226.953H724.776Z" fill="#1A0C6D"/>
<path d="M546.054 290.814C546.054 295.535 546.185 302.824 546.457 305.522C547.132 312.137 549.027 313.344 555.103 313.344C561.179 313.344 564.958 313.344 568.878 312.67C573.734 311.723 576.304 309.569 578.329 306.469C580.083 303.901 581.574 300.801 583.328 295.546L587.248 296.221C586.572 304.859 585.353 311.734 583.872 319.284C573.201 318.74 561.321 318.61 544.04 318.61C537.419 318.61 533.783 318.61 528.512 319.012L528.109 315.64C533.51 313.486 534.458 310.516 534.861 304.576C535.263 300.126 535.263 294.186 535.263 289.465V253.586C535.263 248.864 535.263 242.924 534.861 238.475C534.458 232.535 533.51 229.576 528.109 227.411L528.512 224.038C533.783 224.441 537.419 224.441 540.534 224.441C543.909 224.441 547.557 224.441 552.817 224.038L553.219 227.411C547.818 229.565 546.871 232.535 546.468 238.475C546.065 242.924 546.065 248.864 546.065 253.586V290.814H546.054Z" fill="#1A0C6D"/>
<path d="M592.638 267.337C595.208 262.616 601.959 257.622 609.919 257.622C616.539 257.622 621.668 259.918 624.902 264.639C627.058 267.74 628.953 273.136 628.953 279.206V292.152C628.953 296.33 628.953 300.246 629.225 304.424C629.497 308.873 631.653 312.246 635.976 314.269L634.223 319.665C624.902 319.263 621.396 315.216 620.176 309.145H619.904C616.256 317.37 610.322 320.742 604.246 320.742C595.6 320.742 590.199 315.074 590.199 307.927C590.199 301.584 593.444 297.809 598.703 294.437C603.701 291.195 612.608 287.964 619.49 286.212V279.598C619.49 275.42 618.412 272.178 616.659 269.883C614.634 267.185 611.127 266.108 608.155 266.108C603.56 266.108 599.781 268.001 595.197 271.634L592.627 267.315L592.638 267.337ZM619.501 290.945C616.67 291.891 614.231 292.968 611.672 294.045C602.492 297.962 599.792 302.009 599.792 305.642C599.792 309.276 601.817 312.518 606.543 312.518C612.075 312.518 619.501 307.666 619.501 298.353V290.934V290.945Z" fill="#1A0C6D"/>
<path d="M660.661 305.783L669.568 284.874C673.216 276.377 673.75 273.277 673.75 270.709C673.75 267.881 673.075 265.716 669.024 263.562L669.568 260.461C673.489 260.864 675.775 260.864 678.748 260.864C681.721 260.864 683.604 260.864 687.524 260.461L687.927 263.562C685.499 265.716 684.007 268.153 681.448 273.277C679.423 277.324 677.801 281.371 676.178 285.015L652.277 338.975C649.707 344.774 647.148 348.962 644.448 351.791C642.15 354.086 638.502 356.11 634.19 356.11C630.542 356.11 627.842 353.684 627.842 350.442C627.842 347.472 629.867 344.915 632.971 344.915C635.54 344.915 636.477 345.59 638.916 345.59C641.747 345.59 643.772 343.436 645.798 339.117L655.522 318.077L642.15 285.026C640.669 281.251 638.905 276.258 636.749 271.406C634.724 266.956 633.776 265.738 630.542 263.583L631.087 260.483C635.007 260.755 639.057 260.885 642.019 260.885C644.981 260.885 647.42 260.755 651.34 260.483L651.743 263.583C648.77 264.932 647.692 266.825 647.692 268.979C647.692 272.08 648.237 274.647 652.288 284.765L660.661 305.805V305.783Z" fill="#1A0C6D"/>
<path d="M713.963 257.36C726.921 257.36 736.776 266.934 736.776 279.891C736.776 280.968 736.776 281.914 736.503 282.991H694.918C694.646 284.612 694.646 286.092 694.646 288.115C694.646 302.008 703.02 311.451 713.822 311.451C722.468 311.451 727.727 308.481 733.259 300.528L736.503 302.552C732.453 312.669 724.482 321.035 712.471 321.035C695.593 321.035 684.389 306.74 684.389 290.28C684.389 271.525 697.216 257.371 713.952 257.371L713.963 257.36ZM724.896 277.595C724.765 268.424 718.548 263.431 710.991 263.431C702.758 263.431 697.488 269.632 695.866 277.595H724.896Z" fill="#1A0C6D"/>
<path d="M767.265 266.401C760.917 266.401 755.657 273.821 755.657 286.767V293.109C755.657 297.287 755.657 302.008 755.929 306.197C756.332 311.723 757.552 314.16 763.486 315.912L763.083 319.012C758.358 318.61 754.035 318.61 750.931 318.61C747.828 318.61 744.855 318.61 740.129 319.012L739.727 315.912C744.725 313.888 745.4 311.734 745.803 306.197C746.206 302.019 746.206 297.298 746.206 293.109V289.737C746.206 285.559 746.206 281.24 745.803 277.052C745.4 271.525 744.05 270.307 739.182 269.36V266.532C745.389 263.562 748.764 261.408 753.49 257.089L756.321 258.166C755.919 262.485 755.646 267.881 755.516 271.253L755.646 271.384C759.294 262.485 765.501 257.35 771.849 257.35C777.381 257.35 780.495 260.45 780.495 264.095C780.495 267.739 778.47 268.816 775.639 268.816C772.132 268.816 770.51 266.39 767.265 266.39V266.401Z" fill="#1A0C6D"/>
</g>
<rect x="269.505" y="112.5" width="100" height="50" transform="rotate(90 269.505 112.5)" fill="#1A0C6D"/>
<rect x="319.505" y="212.5" width="100" height="50" transform="rotate(90 319.505 212.5)" fill="#1A0C6D"/>
<rect x="369.505" y="212.5" width="50" height="25" transform="rotate(90 369.505 212.5)" fill="#1A0C6D"/>
<rect x="344.505" y="262.5" width="50" height="25" transform="rotate(90 344.505 262.5)" fill="#1A0C6D"/>
<rect x="394.505" y="262.5" width="50" height="25" transform="rotate(90 394.505 262.5)" fill="#1A0C6D"/>
<rect x="419.505" y="262.5" width="50" height="25" transform="rotate(90 419.505 262.5)" fill="#1A0C6D"/>
<rect x="394.505" y="212.5" width="50" height="25" transform="rotate(90 394.505 212.5)" fill="#1A0C6D"/>
<rect x="320.505" y="112.5" width="25" height="25" transform="rotate(90 320.505 112.5)" fill="#1A0C6D"/>
<rect x="344.505" y="162.5" width="100" height="25" transform="rotate(90 344.505 162.5)" fill="#1A0C6D"/>
<rect x="369.505" y="262.5" width="100" height="25" transform="rotate(90 369.505 262.5)" fill="#1A0C6D"/>
<defs>
<clipPath id="clip0_286_16041">
<rect width="310.99" height="237.599" fill="white" transform="translate(469.505 118.5)"/>
</clipPath>
</defs>
</svg>
