<svg width="1000" height="475" viewBox="0 0 1000 475" fill="none" xmlns="http://www.w3.org/2000/svg">
<rect width="1000" height="475" fill="white"/>
<path d="M465.622 284.114L465.223 280.779C470.564 278.649 471.501 275.712 471.899 269.839C472.297 265.439 472.297 259.565 472.297 254.896V219.428C472.297 214.76 472.297 208.886 471.899 204.486C471.501 198.612 470.564 195.686 465.223 193.545L465.622 190.211C470.833 190.609 474.429 190.609 477.767 190.609H502.328C507.798 190.609 511.943 190.609 517.144 190.211C518.081 197.009 518.608 201.947 519.018 209.284L515.141 209.951C513.408 205.013 511.933 202.216 509.93 200.075C507.927 197.935 504.858 196.87 502.317 196.472C498.979 195.934 496.04 195.805 490.839 195.805C484.562 195.805 483.765 196.87 483.366 202.205C482.968 206.336 482.968 211.145 482.968 215.943V233.015C487.512 233.015 496.858 232.746 501.122 232.348C507.13 231.681 509.004 229.551 511.007 223.409L514.215 224.076C513.817 229.282 513.817 232.208 513.817 235.543C513.817 238.878 513.817 241.944 514.215 247.151L511.007 247.818C509.004 241.686 507.13 239.685 501.122 238.878C496.847 238.34 487.372 238.211 482.968 238.211V256.219C482.968 260.888 483.237 268.096 483.366 270.764C483.636 277.304 485.907 278.499 491.916 278.499C497.924 278.499 502.468 278.369 506.064 277.832C510.737 277.165 512.869 275.293 514.872 272.496C516.476 269.957 517.812 267.16 519.545 262.222L523.152 262.889C522.485 270.893 521.419 277.434 519.944 284.362C510.199 283.824 498.053 283.695 480.954 283.695C474.408 283.695 470.811 283.695 465.6 284.093L465.622 284.114Z" fill="#1A0C6D"/>
<path d="M540.989 242.366C542.863 237.299 543.261 234.76 543.261 233.426C543.261 232.63 542.863 232.222 542.195 232.222C540.86 232.222 538.189 234.352 532.052 241.559L529.511 239.289C537.123 228.22 542.593 223.153 546.997 223.153C549.797 223.153 552.338 225.692 552.338 229.694C552.338 233.964 550.206 239.827 548.203 245.303L539.525 269.841C538.06 273.843 537.791 274.908 537.791 275.446C537.791 276.113 538.329 276.78 539.126 276.78C540.591 276.78 543.261 275.317 549.808 265.979L552.478 267.851C545.404 281.588 539.255 285.321 534.582 285.321C531.514 285.321 528.843 282.653 528.843 279.19C528.843 276.124 529.78 273.187 532.978 264.516L540.989 242.377V242.366ZM551.272 186.48C555.277 186.48 558.346 189.546 558.346 193.548C558.346 197.55 555.277 200.616 551.272 200.616C547.266 200.616 544.198 197.55 544.198 193.548C544.198 189.546 547.266 186.48 551.272 186.48V186.48Z" fill="#1A0C6D"/>
<path d="M601.539 232.899C604.748 236.502 605.943 241.031 605.943 245.969C605.943 259.04 596.327 268.377 584.58 268.377C578.572 268.377 574.168 266.645 570.292 263.44C566.157 266.645 565.22 269.711 565.22 272.777C565.22 276.65 568.289 279.178 574.297 279.447L590.448 279.985C603.402 280.383 609.668 288.118 609.668 298.122C609.668 310.128 597.781 320.66 579.229 320.66C564.143 320.66 556.531 313.99 556.531 304.921C556.531 298.649 559.599 293.712 567.212 288.516C561.473 286.515 557.597 282.115 557.597 275.843C557.597 270.636 559.998 265.301 566.814 260.105C563.745 255.974 562.27 251.703 562.27 245.969C562.27 233.426 572.284 223.561 584.031 223.561C591.773 223.561 593.776 226.229 601.388 226.229C604.726 226.229 609.399 226.1 614.072 225.691L615.138 227.961L614.072 232.899H601.517H601.539ZM588.058 290.119C582.05 290.119 577.247 290.119 571.767 289.721C567.094 294.12 565.22 298.52 565.22 302.662C565.22 308.396 570.162 313.205 581.371 313.205C596.726 313.205 602.336 306.664 602.336 300.403C602.336 294.142 598.061 290.129 588.047 290.129L588.058 290.119ZM572.574 245.162C572.574 256.899 577.118 263.042 584.591 263.042C591.536 263.042 595.811 258.373 595.811 246.636C595.811 235.567 591.137 228.897 583.794 228.897C577.247 228.897 572.574 233.964 572.574 245.173V245.162Z" fill="#1A0C6D"/>
<path d="M644.962 258.373C657.775 258.373 667.53 267.839 667.53 280.652C667.53 281.717 667.53 282.653 667.261 283.718H626.14C625.871 285.321 625.871 286.784 625.871 288.785C625.871 302.522 634.151 311.86 644.833 311.86C653.382 311.86 658.583 308.923 664.053 301.059L667.261 303.06C663.256 313.065 655.374 321.337 643.497 321.337C626.808 321.337 615.728 307.202 615.728 290.925C615.728 272.379 628.412 258.383 644.962 258.383V258.373ZM655.772 278.382C655.643 269.313 649.495 264.375 642.022 264.375C633.882 264.375 628.671 270.507 627.066 278.382H655.772V278.382Z" fill="#1A0C6D"/>
<path d="M723.177 293.722C723.177 297.853 723.177 302.522 723.446 306.664C723.844 312.129 724.652 314.27 729.584 316.27L729.185 319.336C724.512 318.938 721.573 318.938 718.504 318.938C715.435 318.938 712.496 318.938 707.822 319.336L707.424 316.27C712.366 314.27 713.034 312.14 713.432 306.664C713.831 302.533 713.831 297.864 713.831 293.722V279.587C713.831 272.121 709.287 267.043 702.213 267.043C692.996 267.043 687.257 273.315 687.257 281.846V293.722C687.257 297.853 687.257 302.522 687.526 306.664C687.924 312.129 688.732 314.27 693.663 316.27L693.265 319.336C688.592 318.938 685.652 318.938 682.583 318.938C679.515 318.938 676.575 318.938 671.902 319.336L671.504 316.27C676.446 314.27 677.114 312.14 677.512 306.664C677.91 302.533 677.91 297.864 677.91 293.722V290.388C677.91 286.257 677.91 281.986 677.512 277.844C677.114 272.379 675.778 271.174 670.965 270.239V267.442C677.103 264.505 680.441 262.375 685.114 258.104L687.913 259.169C687.515 263.44 687.246 267.043 687.117 270.378L687.246 270.507C690.853 263.709 697.13 258.373 705.141 258.373C711.688 258.373 717.158 261.439 720.367 266.645C722.1 269.711 723.166 273.046 723.166 278.382V293.722H723.177Z" fill="#1A0C6D"/>
<path d="M642.996 219.693C642.996 224.362 643.125 231.57 643.395 234.238C644.062 240.778 645.936 241.972 651.944 241.972C657.952 241.972 661.689 241.972 665.565 241.305C670.367 240.369 672.908 238.239 674.911 235.173C676.645 232.635 678.12 229.569 679.853 224.373L683.73 225.04C683.062 233.581 681.856 240.38 680.392 247.846C669.84 247.308 658.092 247.179 641.004 247.179C634.458 247.179 630.861 247.179 625.65 247.577L625.251 244.242C630.592 242.112 631.529 239.175 631.927 233.302C632.326 228.902 632.326 223.028 632.326 218.359V182.88C632.326 178.212 632.326 172.338 631.927 167.938C631.529 162.064 630.592 159.138 625.251 156.998L625.65 153.663C630.861 154.061 634.458 154.061 637.537 154.061C640.875 154.061 644.482 154.061 649.683 153.663L650.081 156.998C644.741 159.128 643.804 162.064 643.405 167.938C643.007 172.338 643.007 178.212 643.007 182.88V219.693H642.996Z" fill="#1A0C6D"/>
<path d="M693.853 196.477C696.394 191.808 703.07 186.871 710.941 186.871C717.487 186.871 722.559 189.141 725.757 193.809C727.889 196.875 729.762 202.211 729.762 208.214V221.015C729.762 225.146 729.762 229.019 730.032 233.15C730.301 237.55 732.433 240.885 736.707 242.886L734.974 248.222C725.757 247.824 722.29 243.822 721.084 237.819H720.815C717.208 245.952 711.339 249.287 705.331 249.287C696.782 249.287 691.441 243.682 691.441 236.614C691.441 230.342 694.65 226.609 699.85 223.275C704.793 220.069 713.6 216.874 720.405 215.142V208.601C720.405 204.47 719.339 201.264 717.606 198.995C715.603 196.327 712.136 195.262 709.197 195.262C704.653 195.262 700.916 197.134 696.383 200.727L693.842 196.456L693.853 196.477ZM720.416 219.821C717.617 220.757 715.205 221.822 712.674 222.887C703.597 226.76 700.927 230.762 700.927 234.355C700.927 237.948 702.93 241.154 707.603 241.154C713.073 241.154 720.416 236.356 720.416 227.147V219.811V219.821Z" fill="#1A0C6D"/>
<path d="M762.223 234.497L771.031 213.82C774.638 205.419 775.166 202.353 775.166 199.814C775.166 197.017 774.498 194.876 770.493 192.746L771.031 189.68C774.907 190.078 777.169 190.078 780.108 190.078C783.048 190.078 784.91 190.078 788.787 189.68L789.185 192.746C786.784 194.876 785.309 197.286 782.778 202.353C780.776 206.355 779.171 210.356 777.567 213.96L753.932 267.318C751.391 273.052 748.861 277.194 746.19 279.991C743.919 282.261 740.311 284.262 736.047 284.262C732.44 284.262 729.77 281.863 729.77 278.657C729.77 275.72 731.773 273.192 734.841 273.192C737.383 273.192 738.309 273.859 740.721 273.859C743.52 273.859 745.523 271.729 747.526 267.458L757.141 246.653L743.919 213.971C742.454 210.238 740.71 205.3 738.578 200.502C736.575 196.103 735.638 194.898 732.44 192.768L732.979 189.702C736.855 189.971 740.861 190.1 743.789 190.1C746.718 190.1 749.13 189.971 753.006 189.702L753.405 192.768C750.465 194.102 749.399 195.974 749.399 198.104C749.399 201.169 749.938 203.708 753.943 213.713L762.223 234.518V234.497Z" fill="#1A0C6D"/>
<path d="M817.512 186.614C830.325 186.614 840.069 196.081 840.069 208.893C840.069 209.958 840.069 210.894 839.8 211.959H798.679C798.41 213.562 798.41 215.025 798.41 217.026C798.41 230.763 806.69 240.101 817.372 240.101C825.921 240.101 831.122 237.164 836.592 229.3L839.8 231.301C835.795 241.306 827.913 249.578 816.036 249.578C799.347 249.578 788.267 235.443 788.267 219.167C788.267 200.62 800.951 186.625 817.501 186.625L817.512 186.614ZM828.322 206.623C828.193 197.554 822.045 192.617 814.572 192.617C806.432 192.617 801.22 198.749 799.616 206.623H828.322Z" fill="#1A0C6D"/>
<path d="M871.695 195.553C865.417 195.553 860.217 202.89 860.217 215.691V221.963C860.217 226.094 860.217 230.763 860.486 234.904C860.884 240.369 862.09 242.779 867.958 244.511L867.56 247.577C862.887 247.179 858.612 247.179 855.543 247.179C852.475 247.179 849.535 247.179 844.862 247.577L844.464 244.511C849.406 242.51 850.074 240.38 850.472 234.904C850.87 230.773 850.87 226.105 850.87 221.963V218.628C850.87 214.497 850.87 210.226 850.472 206.085C850.074 200.62 848.738 199.415 843.925 198.479V195.682C850.063 192.745 853.401 190.615 858.074 186.344L860.873 187.409C860.475 191.68 860.206 197.016 860.077 200.351L860.206 200.48C863.813 191.68 869.95 186.603 876.228 186.603C881.698 186.603 884.777 189.668 884.777 193.272C884.777 196.876 882.774 197.941 879.975 197.941C876.508 197.941 874.903 195.542 871.695 195.542V195.553Z" fill="#1A0C6D"/>
<rect x="165.223" y="162.663" width="100" height="50" transform="rotate(90 165.223 162.663)" fill="#1A0C6D"/>
<rect x="315.223" y="162.663" width="100" height="50" transform="rotate(90 315.223 162.663)" fill="#1A0C6D"/>
<rect x="265.223" y="262.663" width="50" height="25" transform="rotate(90 265.223 262.663)" fill="#1A0C6D"/>
<rect x="290.223" y="262.663" width="50" height="25" transform="rotate(90 290.223 262.663)" fill="#1A0C6D"/>
<rect x="340.223" y="212.663" width="50" height="25" transform="rotate(90 340.223 212.663)" fill="#1A0C6D"/>
<rect x="390.223" y="212.663" width="50" height="25" transform="rotate(90 390.223 212.663)" fill="#1A0C6D"/>
<rect x="415.223" y="212.663" width="50" height="25" transform="rotate(90 415.223 212.663)" fill="#1A0C6D"/>
<rect x="216.223" y="162.663" width="25" height="25" transform="rotate(90 216.223 162.663)" fill="#1A0C6D"/>
<rect x="240.223" y="212.663" width="100" height="25" transform="rotate(90 240.223 212.663)" fill="#1A0C6D"/>
<rect x="365.223" y="212.663" width="100" height="25" transform="rotate(90 365.223 212.663)" fill="#1A0C6D"/>
</svg>
