<svg width="1000" height="1000" viewBox="0 0 1000 1000" fill="none" xmlns="http://www.w3.org/2000/svg">
<rect width="1000" height="1000" fill="white"/>
<g clip-path="url(#clip0_286_16067)">
<path d="M34.7233 475.703L33.5146 465.586C49.7175 459.123 52.5595 450.213 53.7682 432.393C54.9769 419.045 54.9769 401.225 54.9769 387.06V279.456C54.9769 265.291 54.9769 247.471 53.7682 234.123C52.5595 216.303 49.7175 207.425 33.5146 200.931L34.7233 190.813C50.5342 192.021 61.445 192.021 71.5717 192.021H146.085C162.68 192.021 175.257 192.021 191.035 190.813C193.877 211.44 195.478 226.42 196.719 248.679L184.959 250.702C179.7 235.722 175.224 227.236 169.148 220.741C163.072 214.247 153.762 211.016 146.053 209.808C135.926 208.176 127.008 207.784 111.23 207.784C92.1847 207.784 89.7673 211.016 88.5586 227.204C87.3499 239.736 87.3499 254.325 87.3499 268.881V320.676C101.135 320.676 129.49 319.861 142.427 318.653C160.655 316.629 166.339 310.167 172.415 291.531L182.15 293.555C180.941 309.351 180.941 318.229 180.941 328.346C180.941 338.464 180.941 347.765 182.15 363.562L172.415 365.585C166.339 346.982 160.655 340.911 142.427 338.464C129.458 336.832 100.711 336.44 87.3499 336.44V391.075C87.3499 405.239 88.1666 427.106 88.5586 435.2C89.3753 455.044 96.268 458.666 114.496 458.666C132.724 458.666 146.51 458.275 157.421 456.643C171.598 454.619 178.066 448.941 184.142 440.455C189.01 432.752 193.06 424.267 198.32 409.286L209.263 411.31C207.238 435.592 204.004 455.435 199.529 476.454C169.965 474.822 133.116 474.43 81.2412 474.43C61.3796 474.43 50.4688 474.43 34.658 475.638L34.7233 475.703Z" fill="#1A0C6D"/>
<path d="M261.138 349.037C266.823 333.665 268.031 325.963 268.031 321.916C268.031 319.5 266.823 318.26 264.797 318.26C260.746 318.26 252.645 324.722 234.025 346.589L226.315 339.703C249.411 306.119 266.006 290.747 279.367 290.747C287.86 290.747 295.57 298.449 295.57 310.59C295.57 323.547 289.101 341.335 283.025 357.947L256.696 432.392C252.253 444.533 251.436 447.765 251.436 449.396C251.436 451.42 253.07 453.443 255.487 453.443C259.93 453.443 268.031 449.005 287.893 420.676L295.994 426.355C274.532 468.032 255.879 479.357 241.702 479.357C232.391 479.357 224.29 471.263 224.29 460.754C224.29 451.453 227.132 442.543 236.834 416.237L261.138 349.07V349.037ZM292.335 179.487C304.488 179.487 313.798 188.789 313.798 200.93C313.798 213.071 304.488 222.372 292.335 222.372C280.183 222.372 270.873 213.071 270.873 200.93C270.873 188.789 280.183 179.487 292.335 179.487V179.487Z" fill="#1A0C6D"/>
<path d="M442.604 320.316C452.339 331.25 455.965 344.99 455.965 359.971C455.965 399.625 426.793 427.954 391.153 427.954C372.925 427.954 359.564 422.699 347.804 412.973C335.26 422.699 332.418 432.001 332.418 441.302C332.418 453.052 341.728 460.721 359.956 461.537L408.957 463.169C448.255 464.377 467.268 487.843 467.268 518.196C467.268 554.619 431.203 586.57 374.918 586.57C329.151 586.57 306.056 566.335 306.056 538.822C306.056 519.795 315.366 504.814 338.461 489.051C321.05 482.98 309.29 469.631 309.29 450.604C309.29 434.808 316.574 418.62 337.253 402.856C327.943 390.323 323.467 377.366 323.467 359.971C323.467 321.916 353.848 291.987 389.487 291.987C412.975 291.987 419.051 300.081 442.147 300.081C452.273 300.081 466.451 299.69 480.628 298.449L483.862 305.336L480.628 320.316H442.539H442.604ZM401.705 493.913C383.477 493.913 368.907 493.913 352.28 492.706C338.102 506.054 332.418 519.403 332.418 531.968C332.418 549.364 347.412 563.953 381.419 563.953C428.002 563.953 445.021 544.109 445.021 525.115C445.021 506.12 432.052 493.946 401.672 493.946L401.705 493.913ZM354.73 357.523C354.73 393.13 368.515 411.766 391.186 411.766C412.256 411.766 425.225 397.601 425.225 361.994C425.225 328.41 411.048 308.175 388.769 308.175C368.907 308.175 354.73 323.547 354.73 357.555V357.523Z" fill="#1A0C6D"/>
<path d="M562.035 397.602C600.909 397.602 630.505 426.323 630.505 465.194C630.505 468.425 630.505 471.264 629.689 474.495H504.933C504.117 479.358 504.117 483.797 504.117 489.867C504.117 531.545 529.238 559.874 561.643 559.874C587.581 559.874 603.359 550.964 619.954 527.106L629.689 533.177C617.537 563.53 593.624 588.628 557.593 588.628C506.959 588.628 473.344 545.742 473.344 496.362C473.344 440.096 511.826 397.635 562.035 397.635V397.602ZM594.833 458.307C594.441 430.794 575.788 415.814 553.117 415.814C528.421 415.814 512.61 434.417 507.743 458.307H594.833V458.307Z" fill="#1A0C6D"/>
<path d="M799.328 504.847C799.328 517.38 799.328 531.544 800.145 544.109C801.354 560.689 803.804 567.184 818.765 573.254L817.556 582.556C803.379 581.348 794.461 581.348 785.151 581.348C775.841 581.348 766.923 581.348 752.745 582.556L751.536 573.254C766.531 567.184 768.556 560.722 769.765 544.109C770.973 531.577 770.973 517.412 770.973 504.847V461.962C770.973 439.311 757.188 423.907 735.726 423.907C707.763 423.907 690.351 442.934 690.351 468.815V504.847C690.351 517.38 690.351 531.544 691.168 544.109C692.376 560.689 694.826 567.184 709.788 573.254L708.579 582.556C694.402 581.348 685.484 581.348 676.173 581.348C666.863 581.348 657.945 581.348 643.768 582.556L642.559 573.254C657.553 567.184 659.579 560.722 660.787 544.109C661.996 531.577 661.996 517.412 661.996 504.847V494.729C661.996 482.197 661.996 469.24 660.787 456.674C659.579 440.095 655.528 436.439 640.926 433.6V425.114C659.546 416.204 669.673 409.742 683.85 396.785L692.344 400.016C691.135 412.973 690.318 423.907 689.926 434.024L690.318 434.416C701.262 413.789 720.307 397.601 744.611 397.601C764.472 397.601 781.067 406.903 790.802 422.699C796.062 432.001 799.296 442.118 799.296 458.306V504.847H799.328Z" fill="#1A0C6D"/>
<path d="M263.163 696.428C263.163 710.593 263.555 732.46 264.372 740.554C266.397 760.397 272.082 764.02 290.31 764.02C308.538 764.02 319.873 764.02 331.634 761.996C346.203 759.157 353.912 752.695 359.989 743.393C365.248 735.691 369.723 726.389 374.983 710.625L386.743 712.649C384.717 738.563 381.059 759.189 376.616 781.84C344.602 780.208 308.963 779.816 257.12 779.816C237.258 779.816 226.348 779.816 210.537 781.024L209.328 770.906C225.531 764.444 228.373 755.534 229.582 737.714C230.79 724.366 230.79 706.546 230.79 692.381V584.744C230.79 570.579 230.79 552.759 229.582 539.411C228.373 521.591 225.531 512.714 209.328 506.219L210.537 496.101C226.348 497.309 237.258 497.309 246.601 497.309C256.728 497.309 267.671 497.309 283.45 496.101L284.658 506.219C268.455 512.681 265.613 521.591 264.405 539.411C263.196 552.759 263.196 570.579 263.196 584.744V696.428H263.163Z" fill="#1A0C6D"/>
<path d="M402.914 625.998C410.623 611.834 430.877 596.853 454.756 596.853C474.618 596.853 490.004 603.74 499.706 617.904C506.174 627.206 511.858 643.394 511.858 661.605V700.444C511.858 712.976 511.858 724.726 512.675 737.258C513.492 750.607 519.96 760.724 532.928 766.795L527.669 782.983C499.706 781.775 489.187 769.634 485.529 751.423H484.712C473.768 776.097 455.965 786.214 437.737 786.214C411.799 786.214 395.596 769.21 395.596 747.767C395.596 728.74 405.331 717.415 421.109 707.297C436.103 697.571 462.825 687.878 483.471 682.624V662.78C483.471 650.248 480.236 640.522 474.977 633.635C468.901 625.541 458.382 622.31 449.464 622.31C435.679 622.31 424.343 627.989 410.59 638.89L402.881 625.933L402.914 625.998ZM483.503 696.821C475.01 699.66 467.692 702.891 460.016 706.122C432.477 717.872 424.376 730.013 424.376 740.914C424.376 751.814 430.452 761.54 444.629 761.54C461.224 761.54 483.503 746.984 483.503 719.047V696.788V696.821Z" fill="#1A0C6D"/>
<path d="M606.984 741.337L633.705 678.608C644.649 653.119 646.25 643.817 646.25 636.115C646.25 627.629 644.224 621.134 632.072 614.672L633.705 605.37C645.466 606.578 652.326 606.578 661.244 606.578C670.162 606.578 675.813 606.578 687.573 605.37L688.782 614.672C681.497 621.134 677.022 628.445 669.345 643.817C663.269 655.958 658.402 668.099 653.534 679.033L581.83 840.913C574.121 858.309 566.444 870.874 558.343 879.36C551.45 886.246 540.506 892.317 527.57 892.317C516.627 892.317 508.525 885.038 508.525 875.313C508.525 866.403 514.601 858.733 523.912 858.733C531.621 858.733 534.43 860.756 541.748 860.756C550.241 860.756 556.317 854.294 562.393 841.337L591.565 778.217L551.45 679.065C547.007 667.74 541.715 652.76 535.247 638.203C529.171 624.855 526.329 621.199 516.627 614.737L518.26 605.436C530.02 606.252 542.172 606.643 551.058 606.643C559.943 606.643 567.261 606.252 579.021 605.436L580.23 614.737C571.311 618.784 568.077 624.463 568.077 630.925C568.077 640.227 569.711 647.929 581.863 678.282L606.984 741.402V741.337Z" fill="#1A0C6D"/>
<path d="M766.89 596.068C805.763 596.068 835.327 624.789 835.327 663.66C835.327 666.891 835.327 669.73 834.51 672.961H709.755C708.938 677.824 708.938 682.263 708.938 688.333C708.938 730.011 734.059 758.34 766.465 758.34C792.403 758.34 808.181 749.43 824.776 725.572L834.51 731.643C822.358 761.995 798.446 787.093 762.414 787.093C711.78 787.093 678.166 744.208 678.166 694.828C678.166 638.562 716.648 596.101 766.857 596.101L766.89 596.068ZM799.687 656.773C799.295 629.26 780.643 614.28 757.972 614.28C733.275 614.28 717.464 632.883 712.597 656.773H799.687Z" fill="#1A0C6D"/>
<path d="M926.794 623.19C907.749 623.19 891.971 645.449 891.971 684.287V703.315C891.971 715.847 891.971 730.012 892.788 742.577C893.997 759.157 897.655 766.468 915.459 771.722L914.25 781.024C900.073 779.816 887.104 779.816 877.794 779.816C868.484 779.816 859.565 779.816 845.388 781.024L844.179 771.722C859.173 765.652 861.199 759.189 862.407 742.577C863.616 730.044 863.616 715.88 863.616 703.315V693.197C863.616 680.664 863.616 667.707 862.407 655.142C861.199 638.562 857.148 634.907 842.546 632.068V623.582C861.166 614.672 871.293 608.21 885.47 595.253L893.964 598.484C892.755 611.441 891.938 627.629 891.546 637.747L891.938 638.138C902.882 611.441 921.502 596.036 940.547 596.036C957.142 596.036 966.485 605.338 966.485 616.271C966.485 627.205 960.409 630.436 951.915 630.436C941.396 630.436 936.529 623.158 926.794 623.158V623.19Z" fill="#1A0C6D"/>
</g>
<defs>
<clipPath id="clip0_286_16067">
<rect width="932.971" height="712.796" fill="white" transform="translate(33.5146 179.487)"/>
</clipPath>
</defs>
</svg>
